<mxfile host="app.diagrams.net" agent="Mozilla/5.0 (Windows NT 10.0; Win64; x64) AppleWebKit/537.36 (KHTML, like Gecko) Chrome/133.0.0.0 Safari/537.36" version="26.0.14">
  <diagram name="페이지-1" id="vNSDbO-OjQAWfBvf8L6W">
    <mxGraphModel dx="322" dy="482" grid="1" gridSize="10" guides="1" tooltips="1" connect="1" arrows="1" fold="1" page="1" pageScale="1" pageWidth="1169" pageHeight="1654" math="0" shadow="0">
      <root>
        <mxCell id="0" />
        <mxCell id="1" parent="0" />
        <mxCell id="RERkI4aSMqGIfD-_Pqx5-36" value="" style="rounded=0;whiteSpace=wrap;html=1;strokeColor=none;" vertex="1" parent="1">
          <mxGeometry x="50" y="340" width="200" height="130" as="geometry" />
        </mxCell>
        <mxCell id="RERkI4aSMqGIfD-_Pqx5-3" value="7" style="ellipse;whiteSpace=wrap;html=1;aspect=fixed;fontSize=15;" vertex="1" parent="1">
          <mxGeometry x="80" y="160" width="40" height="40" as="geometry" />
        </mxCell>
        <mxCell id="RERkI4aSMqGIfD-_Pqx5-4" value="7" style="ellipse;whiteSpace=wrap;html=1;aspect=fixed;fontSize=15;" vertex="1" parent="1">
          <mxGeometry x="130" y="160" width="40" height="40" as="geometry" />
        </mxCell>
        <mxCell id="RERkI4aSMqGIfD-_Pqx5-5" value="6" style="ellipse;whiteSpace=wrap;html=1;aspect=fixed;fontSize=15;" vertex="1" parent="1">
          <mxGeometry x="180" y="160" width="40" height="40" as="geometry" />
        </mxCell>
        <mxCell id="RERkI4aSMqGIfD-_Pqx5-6" value="6" style="ellipse;whiteSpace=wrap;html=1;aspect=fixed;fontSize=15;" vertex="1" parent="1">
          <mxGeometry x="230" y="160" width="40" height="40" as="geometry" />
        </mxCell>
        <mxCell id="RERkI4aSMqGIfD-_Pqx5-7" value="6" style="ellipse;whiteSpace=wrap;html=1;aspect=fixed;fontSize=15;" vertex="1" parent="1">
          <mxGeometry x="280" y="160" width="40" height="40" as="geometry" />
        </mxCell>
        <mxCell id="RERkI4aSMqGIfD-_Pqx5-8" value="5" style="ellipse;whiteSpace=wrap;html=1;aspect=fixed;fontSize=15;" vertex="1" parent="1">
          <mxGeometry x="330" y="160" width="40" height="40" as="geometry" />
        </mxCell>
        <mxCell id="RERkI4aSMqGIfD-_Pqx5-9" value="5" style="ellipse;whiteSpace=wrap;html=1;aspect=fixed;fontSize=15;" vertex="1" parent="1">
          <mxGeometry x="380" y="160" width="40" height="40" as="geometry" />
        </mxCell>
        <mxCell id="RERkI4aSMqGIfD-_Pqx5-10" value="5" style="ellipse;whiteSpace=wrap;html=1;aspect=fixed;fontSize=15;" vertex="1" parent="1">
          <mxGeometry x="430" y="160" width="40" height="40" as="geometry" />
        </mxCell>
        <mxCell id="RERkI4aSMqGIfD-_Pqx5-11" value="4" style="ellipse;whiteSpace=wrap;html=1;aspect=fixed;fontSize=15;" vertex="1" parent="1">
          <mxGeometry x="480" y="160" width="40" height="40" as="geometry" />
        </mxCell>
        <mxCell id="RERkI4aSMqGIfD-_Pqx5-12" value="4" style="ellipse;whiteSpace=wrap;html=1;aspect=fixed;fontSize=15;" vertex="1" parent="1">
          <mxGeometry x="530" y="160" width="40" height="40" as="geometry" />
        </mxCell>
        <mxCell id="RERkI4aSMqGIfD-_Pqx5-13" value="3" style="ellipse;whiteSpace=wrap;html=1;aspect=fixed;fontSize=15;" vertex="1" parent="1">
          <mxGeometry x="580" y="160" width="40" height="40" as="geometry" />
        </mxCell>
        <mxCell id="RERkI4aSMqGIfD-_Pqx5-14" value="1" style="ellipse;whiteSpace=wrap;html=1;aspect=fixed;fontSize=15;" vertex="1" parent="1">
          <mxGeometry x="630" y="160" width="40" height="40" as="geometry" />
        </mxCell>
        <mxCell id="RERkI4aSMqGIfD-_Pqx5-17" value="1" style="text;html=1;align=center;verticalAlign=middle;whiteSpace=wrap;rounded=0;" vertex="1" parent="1">
          <mxGeometry x="90" y="440" width="20" height="20" as="geometry" />
        </mxCell>
        <mxCell id="RERkI4aSMqGIfD-_Pqx5-18" value="" style="endArrow=none;html=1;rounded=0;" edge="1" parent="1">
          <mxGeometry width="50" height="50" relative="1" as="geometry">
            <mxPoint x="80" y="440" as="sourcePoint" />
            <mxPoint x="80" y="360" as="targetPoint" />
          </mxGeometry>
        </mxCell>
        <mxCell id="RERkI4aSMqGIfD-_Pqx5-19" value="2" style="text;html=1;align=center;verticalAlign=middle;whiteSpace=wrap;rounded=0;" vertex="1" parent="1">
          <mxGeometry x="110" y="440" width="20" height="20" as="geometry" />
        </mxCell>
        <mxCell id="RERkI4aSMqGIfD-_Pqx5-20" value="3" style="text;html=1;align=center;verticalAlign=middle;whiteSpace=wrap;rounded=0;" vertex="1" parent="1">
          <mxGeometry x="130" y="440" width="20" height="20" as="geometry" />
        </mxCell>
        <mxCell id="RERkI4aSMqGIfD-_Pqx5-21" value="4" style="text;html=1;align=center;verticalAlign=middle;whiteSpace=wrap;rounded=0;" vertex="1" parent="1">
          <mxGeometry x="150" y="440" width="20" height="20" as="geometry" />
        </mxCell>
        <mxCell id="RERkI4aSMqGIfD-_Pqx5-22" value="5" style="text;html=1;align=center;verticalAlign=middle;whiteSpace=wrap;rounded=0;" vertex="1" parent="1">
          <mxGeometry x="170" y="440" width="20" height="20" as="geometry" />
        </mxCell>
        <mxCell id="RERkI4aSMqGIfD-_Pqx5-23" value="6" style="text;html=1;align=center;verticalAlign=middle;whiteSpace=wrap;rounded=0;" vertex="1" parent="1">
          <mxGeometry x="190" y="440" width="20" height="20" as="geometry" />
        </mxCell>
        <mxCell id="RERkI4aSMqGIfD-_Pqx5-24" value="7" style="text;html=1;align=center;verticalAlign=middle;whiteSpace=wrap;rounded=0;" vertex="1" parent="1">
          <mxGeometry x="210" y="440" width="20" height="20" as="geometry" />
        </mxCell>
        <mxCell id="RERkI4aSMqGIfD-_Pqx5-30" value="" style="rounded=0;whiteSpace=wrap;html=1;fillColor=#dae8fc;strokeColor=none;" vertex="1" parent="1">
          <mxGeometry x="90" y="420" width="20" height="20" as="geometry" />
        </mxCell>
        <mxCell id="RERkI4aSMqGIfD-_Pqx5-31" value="" style="rounded=0;whiteSpace=wrap;html=1;fillColor=#dae8fc;strokeColor=none;" vertex="1" parent="1">
          <mxGeometry x="130" y="420" width="20" height="20" as="geometry" />
        </mxCell>
        <mxCell id="RERkI4aSMqGIfD-_Pqx5-32" value="" style="rounded=0;whiteSpace=wrap;html=1;fillColor=#dae8fc;strokeColor=none;" vertex="1" parent="1">
          <mxGeometry x="150" y="400" width="20" height="40" as="geometry" />
        </mxCell>
        <mxCell id="RERkI4aSMqGIfD-_Pqx5-33" value="" style="rounded=0;whiteSpace=wrap;html=1;fillColor=#dae8fc;strokeColor=none;" vertex="1" parent="1">
          <mxGeometry x="170" y="380" width="20" height="60" as="geometry" />
        </mxCell>
        <mxCell id="RERkI4aSMqGIfD-_Pqx5-34" value="" style="rounded=0;whiteSpace=wrap;html=1;fillColor=#dae8fc;strokeColor=none;" vertex="1" parent="1">
          <mxGeometry x="190" y="380" width="20" height="60" as="geometry" />
        </mxCell>
        <mxCell id="RERkI4aSMqGIfD-_Pqx5-35" value="" style="rounded=0;whiteSpace=wrap;html=1;fillColor=#dae8fc;strokeColor=none;" vertex="1" parent="1">
          <mxGeometry x="210" y="400" width="20" height="40" as="geometry" />
        </mxCell>
        <mxCell id="RERkI4aSMqGIfD-_Pqx5-16" value="" style="endArrow=none;html=1;rounded=0;" edge="1" parent="1">
          <mxGeometry width="50" height="50" relative="1" as="geometry">
            <mxPoint x="80" y="440" as="sourcePoint" />
            <mxPoint x="240" y="440" as="targetPoint" />
          </mxGeometry>
        </mxCell>
        <mxCell id="RERkI4aSMqGIfD-_Pqx5-37" value="1" style="text;html=1;align=center;verticalAlign=middle;whiteSpace=wrap;rounded=0;" vertex="1" parent="1">
          <mxGeometry x="60" y="410" width="20" height="20" as="geometry" />
        </mxCell>
        <mxCell id="RERkI4aSMqGIfD-_Pqx5-38" value="2" style="text;html=1;align=center;verticalAlign=middle;whiteSpace=wrap;rounded=0;" vertex="1" parent="1">
          <mxGeometry x="60" y="390" width="20" height="20" as="geometry" />
        </mxCell>
        <mxCell id="RERkI4aSMqGIfD-_Pqx5-39" value="3" style="text;html=1;align=center;verticalAlign=middle;whiteSpace=wrap;rounded=0;" vertex="1" parent="1">
          <mxGeometry x="60" y="370" width="20" height="20" as="geometry" />
        </mxCell>
        <mxCell id="RERkI4aSMqGIfD-_Pqx5-40" value="개수" style="text;html=1;align=center;verticalAlign=middle;whiteSpace=wrap;rounded=0;fontSize=8;" vertex="1" parent="1">
          <mxGeometry x="60" y="350" width="20" height="20" as="geometry" />
        </mxCell>
        <mxCell id="RERkI4aSMqGIfD-_Pqx5-41" value="" style="rounded=0;whiteSpace=wrap;html=1;fillColor=none;" vertex="1" parent="1">
          <mxGeometry x="90" y="420" width="20" height="20" as="geometry" />
        </mxCell>
        <mxCell id="RERkI4aSMqGIfD-_Pqx5-42" value="" style="rounded=0;whiteSpace=wrap;html=1;fillColor=none;" vertex="1" parent="1">
          <mxGeometry x="130" y="420" width="100" height="20" as="geometry" />
        </mxCell>
        <mxCell id="RERkI4aSMqGIfD-_Pqx5-43" value="" style="rounded=0;whiteSpace=wrap;html=1;fillColor=none;" vertex="1" parent="1">
          <mxGeometry x="150" y="400" width="80" height="20" as="geometry" />
        </mxCell>
        <mxCell id="RERkI4aSMqGIfD-_Pqx5-44" value="" style="rounded=0;whiteSpace=wrap;html=1;fillColor=none;" vertex="1" parent="1">
          <mxGeometry x="170" y="380" width="40" height="20" as="geometry" />
        </mxCell>
        <mxCell id="RERkI4aSMqGIfD-_Pqx5-45" value="&lt;font style=&quot;color: rgb(179, 179, 179);&quot;&gt;1&lt;/font&gt;" style="text;html=1;align=center;verticalAlign=middle;whiteSpace=wrap;rounded=0;" vertex="1" parent="1">
          <mxGeometry x="90" y="420" width="20" height="20" as="geometry" />
        </mxCell>
        <mxCell id="RERkI4aSMqGIfD-_Pqx5-47" value="&lt;font style=&quot;color: rgb(179, 179, 179);&quot;&gt;7&lt;/font&gt;" style="text;html=1;align=center;verticalAlign=middle;whiteSpace=wrap;rounded=0;" vertex="1" parent="1">
          <mxGeometry x="210" y="420" width="20" height="20" as="geometry" />
        </mxCell>
        <mxCell id="RERkI4aSMqGIfD-_Pqx5-48" value="&lt;font style=&quot;color: rgb(179, 179, 179);&quot;&gt;7&lt;/font&gt;" style="text;html=1;align=center;verticalAlign=middle;whiteSpace=wrap;rounded=0;" vertex="1" parent="1">
          <mxGeometry x="210" y="400" width="20" height="20" as="geometry" />
        </mxCell>
        <mxCell id="RERkI4aSMqGIfD-_Pqx5-49" value="&lt;font style=&quot;color: rgb(179, 179, 179);&quot;&gt;6&lt;/font&gt;" style="text;html=1;align=center;verticalAlign=middle;whiteSpace=wrap;rounded=0;" vertex="1" parent="1">
          <mxGeometry x="190" y="380" width="20" height="20" as="geometry" />
        </mxCell>
      </root>
    </mxGraphModel>
  </diagram>
</mxfile>
